<?xml version="1.0" standalone="no"?>
<!DOCTYPE svg PUBLIC "-//W3C//DTD SVG 20010904//EN"
 "http://www.w3.org/TR/2001/REC-SVG-20010904/DTD/svg10.dtd">
<svg version="1.0" xmlns="http://www.w3.org/2000/svg"
 width="612.000000pt" height="612.000000pt" viewBox="0 0 612.000000 612.000000"
 preserveAspectRatio="xMidYMid meet">
<metadata>
</metadata>
<g transform="translate(0.000000,612.000000) scale(0.100000,-0.100000)"
fill="#000000" stroke="none">
<path d="M2750 5484 c-717 -97 -1333 -484 -1739 -1094 -139 -208 -279 -542
-335 -796 -44 -202 -51 -277 -51 -544 1 -219 4 -274 24 -390 154 -902 790
-1640 1656 -1924 269 -88 507 -121 820 -113 390 9 677 79 1020 247 394 193
711 471 960 844 189 284 299 568 367 945 29 167 36 507 14 691 -137 1120
-1010 1996 -2126 2135 -154 19 -465 18 -610 -1z m526 -1145 c67 -12 225 -57
236 -68 4 -4 -21 -64 -56 -133 -35 -70 -67 -137 -71 -150 -4 -13 -8 -25 -9
-28 -26 -59 -75 -202 -79 -232 -2 -10 -6 -21 -10 -24 -15 -15 -7 -32 13 -27
11 3 17 10 13 16 -4 7 0 8 12 4 11 -5 22 -1 31 10 8 10 13 14 12 8 -2 -5 7
-20 20 -33 13 -13 21 -30 18 -39 -3 -8 -6 -21 -6 -29 0 -8 -6 -11 -17 -7 -36
14 0 -18 47 -42 55 -28 122 -32 196 -14 49 13 74 2 74 -32 0 -26 -39 -49 -99
-56 -28 -3 -51 -10 -51 -15 0 -4 -12 -5 -26 -2 -24 6 -25 5 -15 -14 9 -16 24
-22 78 -27 90 -8 113 -18 113 -49 0 -30 -13 -39 -67 -46 l-42 -5 29 -46 c53
-85 155 -295 166 -341 3 -16 11 -25 17 -21 5 3 7 1 3 -5 -5 -9 35 -169 49
-191 2 -5 9 -59 15 -122 15 -157 -9 -314 -57 -370 -7 -8 -13 -19 -13 -22 0
-14 -46 -60 -96 -97 -156 -117 -388 -162 -824 -163 -331 0 -476 17 -660 75
-73 24 -80 29 -108 84 -106 211 -12 633 230 1029 93 151 285 403 362 474 18
17 26 35 26 57 0 44 26 59 77 45 20 -6 38 -9 40 -7 5 5 -46 168 -57 181 -5 6
-8 14 -5 17 10 10 -25 79 -37 72 -7 -4 -8 -3 -4 5 7 11 -26 110 -44 136 -4 6
-26 46 -49 89 -30 60 -38 82 -28 88 42 27 204 66 347 82 53 6 240 -3 306 -15z"/>
</g>
</svg>
